<?xml version="1.0" encoding="utf-8"?>
<!-- Generator: Adobe Illustrator 23.0.3, SVG Export Plug-In . SVG Version: 6.00 Build 0)  -->
<svg version="1.1" id="Capa_1" xmlns="http://www.w3.org/2000/svg" xmlns:xlink="http://www.w3.org/1999/xlink" x="0px" y="0px"
	 viewBox="0 0 1200 1200" enable-background="new 0 0 1200 1200" xml:space="preserve">
<g>
	<path fill="#FFB4BB" d="M87.338,205.463c0.361,6.994,1.414,14.029,2.997,20.9c-10.603-4.036-22.53-10.757-24.231-20.595
		c-0.126-0.728,0.53-10.418-0.143-10.086c0.885-0.437,7.421,3.987,8.336,4.442C78.508,202.22,82.879,203.972,87.338,205.463z
		 M200.47,292.676c-27.193-4.298-52.631-17.256-69.971-39.078c-17.775-22.371-33.066-57.646-10.409-81.909
		c11.528-12.345,46.881-27.087,45.341,2.318c-1.169,22.328-21.068,35.437-41.547,35.23c0.867,4.406,2.248,8.804,4.008,13.079
		c25.244-4.873,54.081-26.041,46.511-54.686c-4.9-18.54-24.39-25.243-41.414-18.397c-17.407,7-28.625,22.885-31.185,41.142
		c-2.045,14.581-0.703,28.844,3.28,42.242c0.417,0.674,0.635,1.378,0.616,2.057c11.216,35.085,40.713,63.897,75.762,76.148
		C187.679,304.638,194.006,298.576,200.47,292.676z M1061.129,375.915c17.321-27.778,37.682-54.144,52.978-83.096
		c12.019-22.75,15.981-47.631,5.254-71.799c-27.555-62.079-126.401-52.81-176.262-30.823c-45.375,20.009-78.77,53.002-100.538,97.85
		c-3.458,7.124-27.114,8.069-23.969,1.588c8.047-16.58,17.809-31.651,29.068-45.199c-41.234-25.773-86.047-44.352-133.537-55.009
		c-3.389,15.68-10.451,30.598-20.579,43.581c6.627,3.517,18.915,8.21,21.445,14.7c1.281,3.286-13.2,8.406-15.432,8.766
		c-13.601,2.195-25.755-6.226-37.636-11.809c-20.076-9.435-40.23-19.254-61.26-26.417c-27.293-9.296-56.931-11.464-85.555-9.096
		c-10.891,0.901-20.013,3.514-30.341,6.211c-5.516,1.441-11.081,2.807-15.495-1.529l0.077-0.607
		c8.382-11.005,25.425-15.285,40.741-17.943c-2.005-11.717-2.168-23.723-0.382-35.352
		c-96.395,10.504-188.599,49.379-264.151,110.024c-46.652,37.446-90.058,82.793-122.655,132.958
		c-51.648,79.483-69.195,176.13-41.026,267.521c23.302,75.601,74.025,144.43,129.82,199.642
		c54.899,54.326,121.816,95.283,194.416,121.279c3.492,0.238,6.277,1.401,6.859,3.809c6.712,27.769,14.959,55.773,27.292,81.605
		c11.411,23.902,24.845,35.297,51.86,39.054c18.037,2.508,36.39,5.226,54.646,4.91c68.011-1.179,70.457-96.37,132.217-108.061
		c18.751-3.55,37.273-1.046,56.031-2.622c25.159-2.113,50.181-8.105,74.199-15.685c64.562-20.376,126.11-56.734,172.903-106.036
		c83.537-88.015,109.945-217.878,85.859-334.773c-6.875-33.366-18.155-65.863-33.267-96.39c-2.351-4.748-8.873-12.473-9.395-17.829
		c-0.542-5.556,7.523-15.949,10.425-21.003C1043.946,404.046,1052.41,389.9,1061.129,375.915z"/>
	<path fill="#FC848D" d="M517.686,321.754c39.825,12.17,77.243,31.936,112.744,53.753c-55.116,31.874-102.4,75.011-139.326,126.991
		c-18.633-32.533-38.702-64.466-56.002-97.664c-11.727-22.503-19.137-65.002,3.528-83.488
		C459.148,304.613,495.447,314.958,517.686,321.754z M158.62,838.625c-6.801-8.284-13.452-16.692-19.923-25.221
		c-1.233,39.587-0.57,79.21,2.477,118.716c3.022,39.181,9.707,73.055,39.862,101.19c35.096,32.745,88.723,38.25,124.991,3.88
		c16.192-15.345,26.571-36.279,31.283-58.051C268.639,945.639,207.364,897.998,158.62,838.625z M773.597,1015.136
		c-0.762,0.162-1.531,0.31-2.295,0.468c32.434,37.907,86.618,77.977,133.31,38.761c26.843-22.545,27.376-69.04,24.948-103.735
		C882.059,981.417,829.194,1003.395,773.597,1015.136z M932.347,606.48c-49.37-2.19-109.578,36.219-129.043,81.225
		c-21.051,58.945,8.527,122.627,69.119,141.906c60.198,19.154,117.312-26.671,138.264-81.098
		C1033.314,689.735,1003.324,609.629,932.347,606.48z M1011.299,391.837c10.8-20.715,20.036-37.404,26.471-48.811
		c9.9-17.549,19.62-35.2,29.267-52.889c6.661-12.216,20.071-30.988,18.691-45.632c-1.665-17.676-31.364-16.955-45.655-17.975
		c-14.836-1.059-70.021-6.23-119.528,32.504c-16.507,12.914-27.618,26.936-34.78,37.702c22.556,13.515,47.001,29.822,72.277,49.453
		C977.938,361.641,995.649,377.056,1011.299,391.837z"/>
	<path fill="#FAAA38" d="M530.321,199.995c-4.562-15.947-5.934-33.428-3.075-50.013c0.011-0.061,0.022-0.121,0.03-0.18
		c1.49-8.546,4.081-16.855,7.976-24.577c20.141-39.937,68.194-53.648,108.335-36.495c58.961,25.194,69.318,99.157,35.437,147.567
		c-1.826-0.964-3.606-1.881-5.313-2.681c-1.417-0.664-2.839-1.333-4.259-2c36.22-43.826,16.703-109.452-37.817-129.133
		c-57.935-20.914-111.613,34.964-89.124,92.195c0.427,1.087,1.705,2.817,3.255,4.639c-2.655,0.053-5.308,0.123-7.951,0.243
		C535.32,199.675,532.82,199.816,530.321,199.995z"/>
	<path fill="#F3CF43" d="M673.884,144.763c11.534,27.274-2.171,58.644-21.646,78.022c-0.17,0.169-0.246,0.414-0.273,0.695
		c-12.9-5.877-25.98-11.412-39.43-15.688c-19.629-6.241-40.391-8.509-61.004-8.513c-12.761-46.159,24.386-90.648,73.427-85.618
		C644.411,115.657,665.824,125.705,673.884,144.763z"/>
	<path d="M985.509,712.596c0.859,11.942-1.52,37.805-18.135,38.174c-16.964,0.378-24.406-23.095-25.768-36.209
		c-0.049-0.477-0.018-0.896,0-1.326c-0.027-0.238-0.091-0.466-0.094-0.71c-0.17-12.374,4.336-37.326,21.403-36.007
		C978.942,677.757,984.581,699.704,985.509,712.596z M884.818,693.596c-18.294,3.307-23.203,24.007-22.978,39.979
		c1.598,14.981,9.288,37.398,28.338,32.372c16.931-4.467,20.291-25.616,19.103-40.696
		C908.191,711.421,902.33,690.431,884.818,693.596z M1036.589,683.787c9.604,51.308-20.032,105.814-60.442,135.967
		c-42.598,31.787-98.496,35.578-143.828,6.886c-4.252-2.691-8.265-5.605-12.053-8.702c-13.945-7.376-27.891-14.751-41.836-22.127
		c-18.986-10.041-41.715-15.541-48.392-37.483c-12.889-42.355-4.604-86.85,22.276-121.904
		c23.236-30.301,55.237-52.152,92.016-62.524c12.2-3.441,29.357-8.721,42.254-6.806c11.411,1.696,23.51,9.596,34.147,14.14
		c15.261,6.519,30.521,13.038,45.782,19.557c0.385,0.164,0.781,0.424,1.179,0.728
		C1002.222,614.574,1029.263,644.649,1036.589,683.787z M796.662,791.896c-19.957-30.142-24.97-68.473-11.963-104.893
		c20.634-47.707,75.499-82.892,126.084-91.139c3.109-0.507,6.207-0.85,9.294-1.093c-2.314-0.988-4.628-1.976-6.942-2.965
		c-12.279-5.245-20.238-8.588-33.245-6.93c-27.226,3.471-53.638,12.906-76.321,28.459c-49.049,33.627-78.409,91.403-60.949,149.979
		C760.633,772.841,778.648,782.368,796.662,791.896z M932.347,606.48c-49.37-2.19-109.578,36.219-129.043,81.225
		c-21.051,58.945,8.527,122.627,69.119,141.906c60.198,19.154,117.312-26.671,138.264-81.098
		C1033.314,689.735,1003.324,609.629,932.347,606.48z M1094.383,560.081c23.71,135.734-19.703,278.635-129.682,365.422
		c-5.703,4.501-11.529,8.825-17.424,13.044c3.499,43.418,2.585,98.169-37.339,123.957c-59.36,38.342-118.705,5.246-158.624-43.224
		c-12.876,2.009-25.893,3.252-38.853,3.038c-17.176-0.284-32.008-2.124-44.608,11.319c-12.11,12.921-21.898,27.493-32.293,41.772
		c-14.311,19.659-28.13,39.247-51.274,48.864c-28.353,11.783-60.327,8.619-89.975,4.894c-17.339-2.179-36.807-2.631-51.857-12.528
		c-12.699-8.352-20.106-21.859-26.484-35.246c-12.11-25.416-20.296-52.906-26.949-80.228c-12.101-4.435-24.02-9.297-35.747-14.557
		c-5.778,29.876-22.165,58.988-48.407,75.073c-39.582,24.261-87.275,13.963-121.905-13.949
		c-32.162-25.923-50.982-60.943-55.393-101.654c-5.505-50.807-5.963-102.218-3.883-153.257
		c-35.307-50.394-62.675-105.448-71.043-167.907c-12.597-94.018,20.863-184.4,78.586-257.701
		c13.011-16.522,26.837-32.32,41.362-47.373c-31.857-12.33-59.491-35.675-73.489-67.255c-2.25-5.076-4.291-10.482-6.028-16.078
		c-16.818-5.29-41.3-16.92-40.994-35.781c0.365-22.473,21.086-11.628,35.229-5.122c0.925-18.892,7.69-36.682,23.909-48.96
		c28.286-21.414,73.889-13.571,77.848,26.515c3.198,32.385-26.507,54.791-55.496,60.653c16.405,28.711,44.149,45.963,76.718,50.018
		c0.026,0.004,0.042,0.01,0.068,0.014c84.567-73.89,188.638-123.354,302.046-136.229c1.169-6.775,7.982-42.261,40.932-64.499
		c33.794-22.808,69.888-14.678,80.184-12.359c44.227,9.962,69.3,44.675,75.484,59.587c2.961,7.139,4.776,14.781,4.776,14.781
		c2.244,9.448,3.035,19.035,2.497,28.508c50.598,11.458,98.372,31.08,142.291,58.703c23.788-24.595,53.091-43.3,86.624-55.66
		c54.339-20.027,153.702-28.859,191.709,27.349c40.116,59.327-21.933,122.386-51.8,170.301
		c-10.486,16.823-26.078,36.02-32.417,54.79c-4.053,12.003,8.578,27.65,13.616,39.033
		C1079.292,497.511,1088.857,528.444,1094.383,560.081z M90.335,226.363c-1.583-6.871-2.636-13.906-2.997-20.9
		c-4.459-1.491-8.83-3.243-13.041-5.339c-0.914-0.455-7.451-4.879-8.336-4.442c0.673-0.332,0.017,9.358,0.143,10.086
		C67.805,215.606,79.732,222.327,90.335,226.363z M530.321,199.995c2.499-0.179,4.998-0.32,7.494-0.436
		c2.643-0.121,5.296-0.19,7.951-0.243c-1.549-1.822-2.828-3.552-3.255-4.639c-22.488-57.231,31.189-113.109,89.124-92.195
		c54.52,19.681,74.037,85.307,37.817,129.133c1.42,0.668,2.841,1.336,4.259,2c1.707,0.801,3.486,1.717,5.313,2.681
		c33.881-48.41,23.523-122.374-35.437-147.567c-40.141-17.153-88.194-3.442-108.335,36.495c-3.895,7.722-6.486,16.031-7.976,24.577
		c-0.008,0.059-0.019,0.119-0.03,0.18C524.388,166.568,525.759,184.048,530.321,199.995z M673.884,144.763
		c-8.06-19.058-29.473-29.106-48.926-31.102c-49.041-5.03-86.188,39.46-73.427,85.618c20.613,0.004,41.375,2.272,61.004,8.513
		c13.45,4.276,26.53,9.811,39.43,15.688c0.027-0.28,0.102-0.526,0.273-0.695C671.712,203.407,685.418,172.037,673.884,144.763z
		 M181.461,310.822c6.217-6.184,12.545-12.246,19.008-18.146c-27.193-4.298-52.631-17.256-69.971-39.078
		c-17.775-22.371-33.066-57.646-10.409-81.909c11.528-12.345,46.881-27.087,45.341,2.318c-1.169,22.328-21.068,35.437-41.547,35.23
		c0.867,4.406,2.248,8.804,4.008,13.079c25.244-4.873,54.081-26.041,46.511-54.686c-4.9-18.54-24.39-25.243-41.414-18.397
		c-17.407,7-28.625,22.885-31.185,41.142c-2.045,14.581-0.703,28.844,3.28,42.242c0.417,0.674,0.635,1.378,0.616,2.057
		C116.915,269.759,146.412,298.571,181.461,310.822z M149.579,182.44c1.147-3.364,3.795-12.369,0.559-15.425
		c-3.64-3.439-13.348,4.699-15.659,6.769c-8.19,7.337-11.417,16.204-11.558,25.453C134.666,200.74,145.756,193.654,149.579,182.44z
		 M337.311,979.139c-68.671-33.5-129.947-81.141-178.691-140.514c-6.801-8.284-13.452-16.692-19.923-25.221
		c-1.233,39.587-0.57,79.21,2.477,118.716c3.022,39.181,9.707,73.055,39.862,101.19c35.096,32.745,88.723,38.25,124.991,3.88
		C322.22,1021.845,332.598,1000.911,337.311,979.139z M929.56,950.631c-47.501,30.786-100.366,52.764-155.963,64.506
		c-0.762,0.162-1.531,0.31-2.295,0.468c32.434,37.907,86.618,77.977,133.31,38.761C931.455,1031.821,931.988,985.326,929.56,950.631
		z M1067.975,553.558c-6.875-33.366-18.155-65.863-33.267-96.39c-2.351-4.748-8.873-12.473-9.395-17.829
		c-0.542-5.556,7.523-15.949,10.425-21.003c8.209-14.29,16.672-28.437,25.391-42.421c17.321-27.778,37.682-54.144,52.978-83.096
		c12.019-22.75,15.981-47.631,5.254-71.799c-27.555-62.079-126.401-52.81-176.262-30.823c-45.375,20.009-78.77,53.002-100.538,97.85
		c-3.458,7.124-27.114,8.069-23.969,1.588c8.047-16.58,17.809-31.651,29.068-45.199c-41.234-25.773-86.047-44.352-133.537-55.009
		c-3.389,15.68-10.451,30.598-20.579,43.581c6.627,3.517,18.915,8.21,21.445,14.7c1.281,3.286-13.2,8.406-15.432,8.766
		c-13.601,2.195-25.755-6.226-37.636-11.809c-20.076-9.435-40.23-19.254-61.26-26.417c-27.293-9.296-56.931-11.464-85.555-9.096
		c-10.891,0.901-20.013,3.514-30.341,6.211c-5.516,1.441-11.081,2.807-15.495-1.529l0.077-0.607
		c8.382-11.005,25.425-15.285,40.741-17.943c-2.005-11.717-2.168-23.723-0.382-35.352
		c-96.395,10.504-188.599,49.379-264.151,110.024c-46.652,37.446-90.058,82.793-122.655,132.958
		c-51.648,79.483-69.195,176.13-41.026,267.521c23.302,75.601,74.025,144.43,129.82,199.642
		c54.899,54.326,121.816,95.283,194.416,121.279c3.492,0.238,6.277,1.401,6.859,3.809c6.712,27.769,14.959,55.773,27.292,81.605
		c11.411,23.902,24.845,35.297,51.86,39.054c18.037,2.508,36.39,5.226,54.646,4.91c68.011-1.179,70.457-96.37,132.217-108.061
		c18.751-3.55,37.273-1.046,56.031-2.622c25.159-2.113,50.181-8.105,74.199-15.685c64.562-20.376,126.11-56.734,172.903-106.036
		C1065.653,800.316,1092.06,670.452,1067.975,553.558z M730.716,531.867c0.124,0.028,0.243,0.081,0.368,0.102
		c12.68,2.215,22.82-10.668,22.098-22.55c-0.712-11.728-10.079-25.882-21.602-29.439c-12.73-3.929-23.463,9.256-23.304,21.064
		c0.169,12.514,9.643,26.581,21.599,30.669C730.215,531.828,730.458,531.839,730.716,531.867z M682.865,342.415
		c-41.137-29.829-86.098-54.013-134.794-68.938c-37.019-11.344-82.279-25.109-120.984-17.04
		c-76.629,15.974-59.699,113.618-43.392,168.334c13.636,45.754,40.169,86.499,74.294,119.611c5.364,5.205,21.898-3.949,15.714-9.948
		c-33.453-32.46-59.156-72.157-72.473-117.029c-10.121-34.103-19.051-73.347-10.708-108.655
		c6.909-29.243,27.529-42.606,57.224-41.036c23.498,1.244,47.412,6.899,70.172,12.679c54.058,13.729,104.215,39.328,149.233,71.971
		C673.228,356.77,689.481,347.212,682.865,342.415z M649.674,386.496c-60.492,32.792-111.998,78.741-151.287,135.269
		c-1.583,2.277-4.968-0.739-7.479-4.795c-0.271-0.415-0.543-0.835-0.809-1.31c-22.106-39.477-49.868-78.239-67.544-119.94
		c-10.118-23.87-14.814-61.228,0.567-83.838c16.501-24.256,55.238-16.333,78.686-10.111c50.676,13.444,97.758,39.981,141.601,68.044
		C646.144,371.565,654.798,383.718,649.674,386.496z M630.43,375.507c-35.502-21.817-72.919-41.583-112.744-53.753
		c-22.239-6.796-58.537-17.142-79.055-0.408c-22.665,18.486-15.255,60.985-3.528,83.488c17.3,33.198,37.368,65.131,56.002,97.664
		C528.03,450.519,575.315,407.381,630.43,375.507z M868.215,297.884c-2.309-2.663-3.854-5.392-2.891-6.934
		c24.548-39.27,62.843-66.937,108.426-76.131c28.466-5.74,67.595-6.991,94.843,4.174c25.752,10.552,35.617,33.472,24.835,58.594
		c-19.847,46.245-48.609,90.071-73.579,133.727c-0.875,1.531-5.993-3.163-6.429-3.59c-41.064-40.193-86.998-74.651-137.078-102.84
		C873.515,303.293,870.294,300.732,868.215,297.884z M885.764,296.735c22.556,13.515,47.001,29.822,72.277,49.453
		c19.897,15.453,37.607,30.867,53.257,45.649c10.8-20.715,20.036-37.404,26.471-48.811c9.9-17.549,19.62-35.2,29.267-52.889
		c6.661-12.216,20.071-30.988,18.691-45.632c-1.665-17.676-31.364-16.955-45.655-17.975c-14.836-1.059-70.021-6.23-119.528,32.504
		C904.038,271.948,892.927,285.969,885.764,296.735z M875.832,458.515c-6.542,10.296-3.508,24.644,7.851,29.477
		c0.148,0.216,0.543,0.402,1.288,0.532c1.505,0.515,3.266,0.654,5.077,0.583c11.146,0.716,23.863-2.333,29.891-12.145
		c6.008-9.779,3.233-25.067-8.538-29.087C899.912,443.952,882.541,447.956,875.832,458.515z"/>
</g>
</svg>
